<svg width="32" height="32" viewBox="0 0 32 32" fill="none" xmlns="http://www.w3.org/2000/svg">
<path d="M4.6665 26.6666C4.13317 26.6666 3.6665 26.4666 3.2665 26.0666C2.8665 25.6666 2.6665 25.1999 2.6665 24.6666V7.33325C2.6665 6.79992 2.8665 6.33325 3.2665 5.93325C3.6665 5.53325 4.13317 5.33325 4.6665 5.33325H27.3332C27.8665 5.33325 28.3332 5.53325 28.7332 5.93325C29.1332 6.33325 29.3332 6.79992 29.3332 7.33325V24.6666C29.3332 25.1999 29.1332 25.6666 28.7332 26.0666C28.3332 26.4666 27.8665 26.6666 27.3332 26.6666H4.6665ZM15.9998 16.5999L4.6665 9.16659V24.6666H27.3332V9.16659L15.9998 16.5999ZM15.9998 14.5999L27.1998 7.33325H4.83317L15.9998 14.5999ZM4.6665 9.16659V7.33325V24.6666V9.16659Z" fill="#469AFF"/>
</svg>
