<svg width="32" height="32" viewBox="0 0 32 32" fill="none" xmlns="http://www.w3.org/2000/svg">
<path d="M16.0031 15.6667C16.6456 15.6667 17.1946 15.438 17.6502 14.9804C18.1057 14.5229 18.3335 13.9729 18.3335 13.3304C18.3335 12.688 18.1047 12.139 17.6472 11.6834C17.1897 11.2279 16.6397 11.0001 15.9972 11.0001C15.3547 11.0001 14.8057 11.2288 14.3502 11.6864C13.8946 12.1439 13.6668 12.6939 13.6668 13.3364C13.6668 13.9788 13.8956 14.5279 14.3531 14.9834C14.8106 15.439 15.3606 15.6667 16.0031 15.6667ZM16.0002 26.7001C18.9557 24.0112 21.1391 21.5723 22.5502 19.3834C23.9613 17.1945 24.6668 15.2667 24.6668 13.6001C24.6668 10.9825 23.8303 8.83925 22.1571 7.17025C20.484 5.50125 18.4317 4.66675 16.0002 4.66675C13.5687 4.66675 11.5164 5.50125 9.84323 7.17025C8.17007 8.83925 7.3335 10.9825 7.3335 13.6001C7.3335 15.2667 8.05572 17.1945 9.50016 19.3834C10.9446 21.5723 13.1113 24.0112 16.0002 26.7001ZM16.0002 29.3334C12.4224 26.289 9.75016 23.4612 7.9835 20.8501C6.21683 18.239 5.3335 15.8223 5.3335 13.6001C5.3335 10.2667 6.40572 7.61119 8.55016 5.63341C10.6946 3.65564 13.1779 2.66675 16.0002 2.66675C18.8224 2.66675 21.3057 3.65564 23.4502 5.63341C25.5946 7.61119 26.6668 10.2667 26.6668 13.6001C26.6668 15.8223 25.7835 18.239 24.0168 20.8501C22.2502 23.4612 19.5779 26.289 16.0002 29.3334Z" fill="#469AFF"/>
</svg>
