<svg width="32" height="32" viewBox="0 0 32 32" fill="none" xmlns="http://www.w3.org/2000/svg">
<path d="M8.6665 30.6666C8.13317 30.6666 7.6665 30.4666 7.2665 30.0666C6.8665 29.6666 6.6665 29.1999 6.6665 28.6666V3.33325C6.6665 2.79992 6.8665 2.33325 7.2665 1.93325C7.6665 1.53325 8.13317 1.33325 8.6665 1.33325H23.3332C23.8665 1.33325 24.3332 1.53325 24.7332 1.93325C25.1332 2.33325 25.3332 2.79992 25.3332 3.33325V28.6666C25.3332 29.1999 25.1332 29.6666 24.7332 30.0666C24.3332 30.4666 23.8665 30.6666 23.3332 30.6666H8.6665ZM8.6665 27.6666V28.6666H23.3332V27.6666H8.6665ZM8.6665 25.6666H23.3332V6.33325H8.6665V25.6666ZM8.6665 4.33325H23.3332V3.33325H8.6665V4.33325Z" fill="#469AFF"/>
</svg>
