<svg width="31" height="31" viewBox="0 0 31 31" fill="none" xmlns="http://www.w3.org/2000/svg">
<path d="M15.4998 23.25C14.2942 23.25 13.1425 23.4384 12.0445 23.8151C10.9466 24.1919 9.94559 24.757 9.04142 25.5105V25.8334H21.9581V25.5105C21.0539 24.757 20.0529 24.1919 18.955 23.8151C17.857 23.4384 16.7053 23.25 15.4998 23.25ZM6.45809 24.348C7.62059 23.207 8.97146 22.3082 10.5107 21.6516C12.0499 20.995 13.7129 20.6667 15.4998 20.6667C17.2866 20.6667 18.9496 20.995 20.4888 21.6516C22.0281 22.3082 23.3789 23.207 24.5414 24.348V7.75004H6.45809V24.348ZM15.4998 18.0834C14.2511 18.0834 13.1855 17.6421 12.3029 16.7594C11.4202 15.8768 10.9789 14.8112 10.9789 13.5625C10.9789 12.3139 11.4202 11.2483 12.3029 10.3657C13.1855 9.48303 14.2511 9.04171 15.4998 9.04171C16.7484 9.04171 17.814 9.48303 18.6966 10.3657C19.5793 11.2483 20.0206 12.3139 20.0206 13.5625C20.0206 14.8112 19.5793 15.8768 18.6966 16.7594C17.814 17.6421 16.7484 18.0834 15.4998 18.0834ZM15.4998 15.5C16.0379 15.5 16.4954 15.3117 16.8722 14.9349C17.2489 14.5582 17.4373 14.1007 17.4373 13.5625C17.4373 13.0243 17.2489 12.5669 16.8722 12.1901C16.4954 11.8134 16.0379 11.625 15.4998 11.625C14.9616 11.625 14.5041 11.8134 14.1274 12.1901C13.7506 12.5669 13.5623 13.0243 13.5623 13.5625C13.5623 14.1007 13.7506 14.5582 14.1274 14.9349C14.5041 15.3117 14.9616 15.5 15.4998 15.5ZM6.45809 28.4167C5.74767 28.4167 5.13951 28.1638 4.63361 27.6579C4.12771 27.1519 3.87476 26.5438 3.87476 25.8334V7.75004C3.87476 7.03962 4.12771 6.43146 4.63361 5.92556C5.13951 5.41966 5.74767 5.16671 6.45809 5.16671H7.74976V2.58337H10.3331V5.16671H20.6664V2.58337H23.2498V5.16671H24.5414C25.2518 5.16671 25.86 5.41966 26.3659 5.92556C26.8718 6.43146 27.1248 7.03962 27.1248 7.75004V25.8334C27.1248 26.5438 26.8718 27.1519 26.3659 27.6579C25.86 28.1638 25.2518 28.4167 24.5414 28.4167H6.45809ZM15.4998 25.8334H21.9581H9.04142H15.4998Z" fill="#1D74DD"/>
</svg>
